<svg version="1.1" xmlns="http://www.w3.org/2000/svg"
	xmlns:xlink="http://www.w3.org/1999/xlink"
	width="100%" viewBox="0 0 500 500" xml:space="preserve">
<path fill="#E1E8F9" opacity="1.000000" stroke="none" 
	d="
M480.389893,207.377380 
	C471.461853,215.394562 462.793671,223.171326 453.990082,231.069580 
	C449.970886,227.555176 446.276123,224.003708 442.258087,220.866226 
	C424.213623,206.776184 398.000549,209.743469 385.318848,226.999557 
	C373.820221,242.645828 374.202271,280.589478 398.925385,291.365906 
	C414.186127,298.017853 428.695099,296.390808 442.069214,286.360718 
	C446.053314,283.372772 449.770447,280.028870 454.134247,276.413635 
	C465.655701,286.662476 477.165680,296.901123 488.985809,307.415619 
	C467.985870,333.442780 440.258698,342.743256 408.153870,340.679626 
	C366.205750,337.983337 336.857117,318.008728 323.429016,276.342834 
	C318.797974,279.504486 314.461212,282.465271 309.536804,285.827209 
	C320.904602,302.603363 332.197296,319.268677 343.904449,336.545593 
	C341.934174,336.748932 340.718292,336.980713 339.501831,336.983856 
	C322.838470,337.026855 306.174072,336.947876 289.512299,337.123840 
	C285.565582,337.165497 282.986420,335.751495 280.867035,332.502319 
	C274.877350,323.319580 268.093048,314.599304 262.758820,305.061005 
	C257.749481,296.103638 251.096359,293.050781 241.096008,295.696869 
	C241.096008,309.018555 241.096008,322.618530 241.096008,337.000031 
	C239.148865,337.000031 237.565689,336.998932 235.982529,337.000183 
	C209.654236,337.020569 183.324875,336.925873 156.998581,337.165558 
	C152.112320,337.210052 149.727737,335.237091 148.226135,330.956848 
	C146.091019,324.870819 143.990891,318.730713 141.202591,312.937714 
	C140.190842,310.835693 137.268097,308.317719 135.175613,308.279633 
	C115.695618,307.925018 96.206535,308.069763 76.372742,308.069763 
	C73.520912,315.631927 70.549347,323.133942 67.877228,330.741150 
	C66.312881,335.194611 63.987648,337.303162 58.797977,337.191040 
	C42.148663,336.831421 25.486700,337.057343 8.162092,337.057343 
	C9.180889,334.546600 9.978076,332.448944 10.873709,330.394226 
	C33.160435,279.264496 55.523216,228.167679 77.652603,176.969971 
	C79.899673,171.771255 82.731491,169.692825 88.494766,169.870193 
	C101.979370,170.285172 115.491524,170.236465 128.979828,169.886200 
	C134.318253,169.747559 137.038757,171.671249 139.118439,176.506699 
	C152.590286,207.830124 166.317764,239.043625 179.973862,270.287720 
	C180.891052,272.386169 181.909790,274.440277 183.695526,276.370209 
	C183.695526,241.228561 183.695526,206.086914 183.695526,170.345505 
	C185.736465,170.220581 187.323990,170.039108 188.911560,170.038773 
	C215.239929,170.033234 241.571960,169.790359 267.895294,170.160248 
	C283.652283,170.381683 298.829285,173.609985 312.604279,181.915588 
	C321.968323,187.561615 329.088715,195.252197 334.663635,205.431610 
	C358.252319,173.263199 390.848999,163.354507 428.654297,167.204315 
	C452.953278,169.678741 473.374207,179.974640 488.874268,199.841125 
	C486.098633,202.303360 483.374207,204.720154 480.389893,207.377380 
M282.949402,225.940872 
	C280.778107,219.564194 276.347656,215.089493 269.764038,214.608765 
	C260.258514,213.914658 250.664597,214.431244 241.315109,214.431244 
	C241.315109,227.382553 241.315109,240.088821 241.315109,253.309723 
	C249.832886,252.896698 257.969849,252.749115 266.059967,252.055054 
	C280.034058,250.856171 286.888245,240.461578 282.949402,225.940872 
M107.502625,267.095551 
	C112.897728,267.095551 118.292839,267.095551 124.175095,267.095551 
	C118.769279,253.118698 113.624863,239.817688 107.997177,225.267197 
	C102.349846,239.916504 97.192162,253.295670 91.872269,267.095581 
	C97.207771,267.095581 101.856934,267.095581 107.502625,267.095551 
z"/>
</svg>